<svg xmlns="http://www.w3.org/2000/svg" viewBox="0 0 360 96" width="360" height="96" role="img" aria-label="Angaza Nuru">
  <defs>
    <radialGradient id="sun2" cx="50%" cy="50%" r="50%">
      <stop offset="0%" stop-color="#F1C4A3"></stop>
      <stop offset="60%" stop-color="#E8A87C"></stop>
      <stop offset="100%" stop-color="#C8553D"></stop>
    </radialGradient>
  </defs>
  <g transform="translate(4 8)">
    <path d="M4 60 C 18 52, 62 52, 76 60 L 76 76 C 76 82, 70 88, 64 88 L 16 88 C 10 88, 4 82, 4 76 Z" fill="#1E3A5F"></path>
    <path d="M8 66 C 22 60, 58 60, 72 66" stroke="#3E5C84" stroke-width="1.5" fill="none" stroke-linecap="round"></path>
    <circle cx="40" cy="48" r="20" fill="url(#sun2)"></circle>
    <g stroke="#C8553D" stroke-width="2.2" stroke-linecap="round">
      <line x1="40" y1="8" x2="40" y2="16"></line>
      <line x1="14" y1="20" x2="20" y2="26"></line>
      <line x1="66" y1="20" x2="60" y2="26"></line>
      <line x1="6" y1="44" x2="14" y2="44"></line>
      <line x1="66" y1="44" x2="74" y2="44"></line>
    </g>
  </g>
  <g transform="translate(100 0)" font-family="DM Serif Display, Georgia, serif" fill="#2C2419">
    <text x="0" y="50" font-size="38">Angaza</text>
    <text x="0" y="84" font-size="38" fill="#C8553D">Nuru</text>
  </g>
</svg>